<svg xmlns="http://www.w3.org/2000/svg" viewBox="0 0 600.77 87.92">
    <defs>
        <style>.cls-1{fill:#E6E1C5;}</style>
    </defs>
    <g id="Calque_2" data-name="Calque 2">
        <g id="Calque_1-2" data-name="Calque 1">
            <path class="cls-1" d="M107.76,22.07Q100.82,12,81.34,9.18a70.71,70.71,0,0,0-10.91-.87,109.87,109.87,0,0,0-38.69,7.07Q17.35,20.71,9.92,27.78,5.09,32.12,5.08,36a6.37,6.37,0,0,0,1.24,4c.83,1.07,1,1.73.62,2a.93.93,0,0,1-1.24-.25,13.38,13.38,0,0,1-3.1-9A18,18,0,0,1,9.67,18q9.67-7.68,27-12.83A114.4,114.4,0,0,1,69.19,0q15.25,0,25,4.22,19.35,8.18,19.34,28.14,0,16.24-14.26,31.13Q82.46,81,50.84,86.3a104.61,104.61,0,0,1-17.36,1.62Q6.33,87.92.62,76.76A6.09,6.09,0,0,1,0,75.27c0-.66.66-.5,2,.49Q9.42,81,26.35,81A126.18,126.18,0,0,0,61,76,91.35,91.35,0,0,0,91.39,61.26q9.54-7.2,14.51-14.51,5.2-7.7,5.2-13.7A19.22,19.22,0,0,0,107.76,22.07Zm-51-9.67H58.4c.58,0,.87.12.87.37a2.77,2.77,0,0,1-1,1.86,285.28,285.28,0,0,0-22.63,29.2Q23.56,61.38,20.21,70.31q-.37,1-.87,1c-.74,0-1.11-.41-1.11-1.24q0-6.69,18.1-32.18T56.79,12.4Z" />
            <path class="cls-1" d="M127.1,78.49q-8.31,4.22-14.51,4.22-5.2,0-7.07-3.47a7.88,7.88,0,0,1-1-4,22.28,22.28,0,0,1,2.36-9.92,21.26,21.26,0,0,1-3.1,2.6c-.83.75-1.24.66-1.24-.25,0-.57.72-1.48,2.17-2.72s3.65-3.33,6.63-6.27,5.33-5.14,7.07-6.63q7.56-6.33,16-6.32a14,14,0,0,1,6.33,1.61q4.71,2.24,4.71,8.18,0,7.2-7.19,14.76a37,37,0,0,1-7.94,6.45q10.17-1.62,21.58-12.28a1.53,1.53,0,0,1,1.11-.43.5.5,0,0,1,.5.55,1.44,1.44,0,0,1-.5,1q-13.63,12.89-25.42,12.89Zm12-13c2.06-3.14,3.1-5.8,3.1-8a5.55,5.55,0,0,0-2.86-5,5.57,5.57,0,0,0-3.72-1.36q-7.56,0-14,5.95a29.74,29.74,0,0,0-8.49,12.65,14,14,0,0,0-.87,4.9,3.75,3.75,0,0,0,1.92,3.59,8.68,8.68,0,0,0,4.28,1.06c1.57,0,3.85-.79,6.82-2.36a1.85,1.85,0,0,1-.74-.25,2.23,2.23,0,0,1-1.49-2q0-4.34,4.84-8.81a10.64,10.64,0,0,1,7.06-3.1C137.43,62.74,138.79,63.65,139.13,65.47Z" />
            <path class="cls-1" d="M179.18,61.5q-1.25,1.86-3.35,4.72t-4,5.45c-1.24,1.74-1.86,3-1.86,3.91s.41,1.3,1.24,1.3q2.23,0,6.57-4l4-3.84a165.07,165.07,0,0,0,10.66-12.65L197,50.84a6.53,6.53,0,0,1,4.47-2.48,9.94,9.94,0,0,1,6.69,2.73c-.49.74-1.3,1.82-2.42,3.22s-2.23,2.84-3.34,4.28-2.4,3.12-3.85,5-2.71,3.68-3.78,5.33-2.17,3.41-3.29,5.27A30.47,30.47,0,0,0,189.1,79c-1.24,3.63-1.2,5.91.12,6.82.41.41.33.62-.25.62a1,1,0,0,1-.49-.13q-4.72-1.6-4.72-7.68t4-14.39q-13.26,17.11-21.57,17.11-6.33,0-6.33-6a17.39,17.39,0,0,1,.87-5q1.86-5.58,12.65-17.61a4.62,4.62,0,0,0,1.36-2.72c0-.75-.49-1.12-1.48-1.12s-2.48.74-4.47,2.23a109.41,109.41,0,0,0-8.31,7.26q-5.32,5-6.51,6c-.78.66-1.18.5-1.18-.5,0-.49.79-1.38,2.36-2.66a79.29,79.29,0,0,0,6.45-6.2,62.47,62.47,0,0,1,7.13-6.57,11.3,11.3,0,0,1,7-2.3c3,0,5,1.12,6.07,3.35a7.27,7.27,0,0,1,.62,3.22,11.78,11.78,0,0,1-1,4.41A24.73,24.73,0,0,1,179.18,61.5Z" />
            <path class="cls-1" d="M244.28,51.21c0-1.57-.83-2.35-2.48-2.35q-2.12,0-6.51,1.92T225.43,59q-6.57,7.82-6.57,13.89c0,3.06,1.15,5.13,3.47,6.2a6.35,6.35,0,0,0,2.6.5q5.08,0,12-4.34t17.79-14.39q1.74-1.73,1.74,0a1.77,1.77,0,0,1-.75,1.37q-15.12,13.89-22.25,17.17T222.2,82.71q-14.38,0-14.38-10.54T217.31,54q9.48-7.62,19.77-7.62c4.3,0,7.2,1,8.68,3a4.63,4.63,0,0,1,1.37,3.16,8,8,0,0,1-.87,3.48,2.9,2.9,0,0,1-2.79,1.79c-1.28,0-1.47-.8-.56-2.41A8.88,8.88,0,0,0,244.28,51.21Z" />
            <path class="cls-1" d="M272.92,38.07q2.73-4.09,4.4-6.51A40.27,40.27,0,0,1,280,28q1-1.11,4.46-1.92a30,30,0,0,1,6.7-.8c2.15,0,3.22.22,3.22.68s-1.78,2.38-5.33,5.76a168.49,168.49,0,0,0-12.4,13.52q8.43,1.37,11,5.33c.66,1.16.76,1.9.31,2.23s-1,.21-1.55-.37q-2.61-2.6-8.31-2.6a36.79,36.79,0,0,0-5.58.49Q262.5,63.24,259.9,71.42a12,12,0,0,0-.87,4c0,2.9,1.2,4.34,3.6,4.34q3.84,0,10.79-5.33a149,149,0,0,0,15.74-13.52c.83-.9,1.37-1.11,1.61-.62s.05,1-.61,1.62Q279.48,73,272.24,78.31t-13.33,5.27q-8.31,0-8.31-8.81a27.38,27.38,0,0,1,2.36-10l-2.24,2.11c-.66.66-1.13.85-1.42.55a1.2,1.2,0,0,1-.44-.8c0-.25.33-.66,1-1.24q9.06-7.93,12.4-12c-1.57.58-2.62.62-3.16.12a3.79,3.79,0,0,1-1.11-2c-.21-.83.2-1.84,1.24-3a8.84,8.84,0,0,1,4.59-2.6,28.33,28.33,0,0,1,4.52-.93Q270.19,42.16,272.92,38.07Z" />
            <path class="cls-1" d="M306.89,78.49q-8.31,4.22-14.5,4.22c-3.48,0-5.83-1.16-7.07-3.47a7.88,7.88,0,0,1-1-4,22.4,22.4,0,0,1,2.35-9.92,20.74,20.74,0,0,1-3.1,2.6c-.82.75-1.24.66-1.24-.25,0-.57.73-1.48,2.17-2.72s3.66-3.33,6.64-6.27,5.33-5.14,7.06-6.63q7.57-6.33,16-6.32a14,14,0,0,1,6.32,1.61q4.71,2.24,4.72,8.18,0,7.2-7.2,14.76a37,37,0,0,1-7.93,6.45q10.17-1.62,21.57-12.28a1.56,1.56,0,0,1,1.12-.43.5.5,0,0,1,.5.55,1.44,1.44,0,0,1-.5,1q-13.63,12.89-25.42,12.89Zm12-13c2.07-3.14,3.1-5.8,3.1-8a5.55,5.55,0,0,0-2.85-5,5.6,5.6,0,0,0-3.72-1.36q-7.56,0-13.95,5.95A29.56,29.56,0,0,0,293,69.69a14,14,0,0,0-.87,4.9,3.75,3.75,0,0,0,1.92,3.59,8.68,8.68,0,0,0,4.28,1.06q2.36,0,6.82-2.36a1.83,1.83,0,0,1-.75-.25,2.21,2.21,0,0,1-1.48-2q0-4.34,4.83-8.81a10.66,10.66,0,0,1,7.07-3.1Q318.43,62.74,318.92,65.47Z" />
            <path class="cls-1" d="M359,61.5q-1.23,1.86-3.35,4.72t-4,5.45c-1.24,1.74-1.86,3-1.86,3.91s.41,1.3,1.24,1.3q2.22,0,6.57-4l4-3.84q6.07-6.57,10.66-12.65l4.59-5.58a6.49,6.49,0,0,1,4.46-2.48,10,10,0,0,1,6.7,2.73c-.5.74-1.3,1.82-2.42,3.22s-2.23,2.84-3.35,4.28-2.4,3.12-3.84,5-2.71,3.68-3.78,5.33-2.17,3.41-3.29,5.27A30.65,30.65,0,0,0,368.89,79c-1.24,3.63-1.2,5.91.13,6.82.41.41.33.62-.25.62a1,1,0,0,1-.5-.13q-4.71-1.6-4.71-7.68t4-14.39Q354.26,81.35,346,81.34q-6.31,0-6.32-6a17.39,17.39,0,0,1,.87-5q1.86-5.58,12.65-17.61a4.68,4.68,0,0,0,1.36-2.72c0-.75-.5-1.12-1.49-1.12s-2.48.74-4.46,2.23a105.61,105.61,0,0,0-8.31,7.26q-5.34,5-6.51,6c-.79.66-1.18.5-1.18-.5,0-.49.78-1.38,2.36-2.66a77.89,77.89,0,0,0,6.44-6.2,62.44,62.44,0,0,1,7.14-6.57,11.27,11.27,0,0,1,7-2.3c3,0,5,1.12,6.08,3.35a7.27,7.27,0,0,1,.62,3.22,11.62,11.62,0,0,1-1,4.41A24,24,0,0,1,359,61.5Z" />
            <path class="cls-1" d="M397.41,75.52q0,3.35,3.35,3.34A20.22,20.22,0,0,0,407,77.25q4.28-1.6,11.1-7.07a116.1,116.1,0,0,0,9.18-7.87c1.56-1.61,2.52-2.4,2.85-2.36s.45.29.37.75a2.19,2.19,0,0,1-.62,1.18q-10.54,10.78-17.48,15.5t-12.9,4.71q-5.08,0-7.07-2.36a8.22,8.22,0,0,1-2-5.45q0-5.58,4-13.4-7.2,7.7-7.2,5c0-.32.25-.7.75-1.11a77.09,77.09,0,0,0,12.52-13.64,257.9,257.9,0,0,0,19.22-28.15A8.69,8.69,0,0,0,421,19.47q0-2.61-2.85-1c-2.15,1.07-3.31,1.48-3.47,1.24s0-.58.37-1a34,34,0,0,1,8.18-4.21,28.34,28.34,0,0,1,8.56-2.11c3.47,0,5.21,1.08,5.21,3.22a10.8,10.8,0,0,1-1.8,5q-1.8,3.11-10.29,12.34t-10.36,11.6q-12.76,16.74-16.24,26.66A14.2,14.2,0,0,0,397.41,75.52Z" />
            <path class="cls-1" d="M448,49.35a42.48,42.48,0,0,0-8.49,13.21q-3.42,8-3.41,11.22c0,2.15.85,3.22,2.54,3.22s4.51-1.24,8.43-3.72a103,103,0,0,0,13.46-10.54c1.07-1,1.61-.86,1.61.38a.69.69,0,0,1-.25.49q-6,5.2-10,8.56a61.06,61.06,0,0,1-9.74,6.38q-5.64,3-9.24,3-4.46,0-6.63-2a5.81,5.81,0,0,1-2.17-4.34,13.41,13.41,0,0,1,1.61-7.07A69.64,69.64,0,0,1,431.14,61q-1.36,1.11-4.28,3.72t-4,3.47c-.74.58-1.11.41-1.11-.5,0-.57.66-1.4,2-2.48s4.19-3.8,8.62-8.18,7.44-7,9.05-7.81a9.2,9.2,0,0,1,4-1.24,4.67,4.67,0,0,1,2.29.43C448.13,48.71,448.25,49,448,49.35Zm1.61-6.57a3.35,3.35,0,0,1-1.11-3.22,8.71,8.71,0,0,1,2.23-4.47,6.61,6.61,0,0,1,5.33-2.35,3.38,3.38,0,0,1,2.11.93,3.3,3.3,0,0,1,.87,3.1,7.39,7.39,0,0,1-2,4.09,7.94,7.94,0,0,1-3.91,2.48A3.83,3.83,0,0,1,449.61,42.78Z" />
            <path class="cls-1" d="M506.78,51.83q0,8.69-8.68,18.85A42.23,42.23,0,0,1,484,81.84a17.71,17.71,0,0,1-7.13,1.86A9.72,9.72,0,0,1,471.31,82a5.79,5.79,0,0,1-2.48-5.15,23.61,23.61,0,0,1,1-6.82,83.28,83.28,0,0,1-6.83,9.3q-2.47,2.73-4.71,2.73h-.62a9.34,9.34,0,0,1-6.2-2.61Q459.54,68.2,464,61.13q-2.87,2.85-7.07,6.33c-.75.58-1.26.68-1.55.31s0-1,.93-1.8q3.72-3.11,5.21-4.47,4.83-4.71,11.65-15.37,19-29.39,19-36.46a2.32,2.32,0,0,0-2.48-2.6.22.22,0,0,1-.25-.25.22.22,0,0,1,.25-.25q5.7.25,6.57,7.57v1.11q0,9.67-16.12,38a37.12,37.12,0,0,1,12.52-8.68,15.56,15.56,0,0,1,5.77-1.24,10.6,10.6,0,0,1,5,1.24A9,9,0,0,1,506.78,51.83ZM489.67,51a11,11,0,0,0-5,1.62,26.14,26.14,0,0,0-9.43,9.17q-4.83,7.32-4.83,14,0,4.47,2.47,5.83a6.24,6.24,0,0,0,3.41.87,11.84,11.84,0,0,0,5.15-1.61q5.2-2.61,9.43-9,4.71-7.32,4.71-14.08T489.67,51Z" />
            <path class="cls-1" d="M542,55.8a107.51,107.51,0,0,0-8.86,11.59c-2.28,3.52-3.41,6-3.41,7.44s.84,2.17,2.54,2.17,5.16-1.69,10.41-5.08a100.3,100.3,0,0,0,14.57-11.41c.42-.41.79-.57,1.12-.49a.59.59,0,0,1,.5.62,1.86,1.86,0,0,1-.5,1.11q-16,14.64-24.43,18.35a16.77,16.77,0,0,1-5.33,1.49q-6,0-8.12-2a5.81,5.81,0,0,1-2.17-4.34q0-4.71,1.86-7.19,6.08-8.56,9.67-14.51c.74-1.16.6-2-.43-2.42a9.69,9.69,0,0,0-3.85-.68,9.46,9.46,0,0,1-2.42-.13A92.83,92.83,0,0,1,506.65,68q-1,.87-1.11,0a3.71,3.71,0,0,1,1.36-2.35,78.79,78.79,0,0,0,14.26-15.75A2.35,2.35,0,0,1,520,47.8c0-.87.07-1.92.19-3.16a13.83,13.83,0,0,1,1.92-5c2-3.47,4.05-5.21,6.2-5.21,1.82,0,2.73,1,2.73,3q0,4.09-3.84,8.93a15.11,15.11,0,0,1-3.48,3.22q4.59-1.49,13.4-1.49,4.33,0,6.2,3.23a3.52,3.52,0,0,1,.24,1.48C543.6,53.49,543.07,54.48,542,55.8Z" />
            <path class="cls-1" d="M581.55,61.26q6.57-3.6,6.57-7.32t-4.46-3.72a10.38,10.38,0,0,0-4.47,1.12,28.9,28.9,0,0,0-10,8.18q-6,7.18-5.95,13.39a8,8,0,0,0,1.3,4.4q1.31,2.06,4.65,2,5.82,0,14.75-6.14a120.17,120.17,0,0,0,15.38-12.34c1-1,1.49-1,1.49-.12a1.87,1.87,0,0,1-.75,1.49l-6.13,5.64c-1,1-3.08,2.65-6.14,5.08a50.29,50.29,0,0,1-7.44,5.15q-8.8,4.59-14.94,4.59t-9.68-2.79a9.33,9.33,0,0,1-3.53-7.75q0-10.55,9.42-18.17t19.72-7.62q6.94,0,9.3,3a5.61,5.61,0,0,1,1,3.16,7.58,7.58,0,0,1-1.11,3.66q-2.24,3.86-8.37,6.76a27.18,27.18,0,0,1-11.6,2.91c-1.41,0-2.17-.12-2.29-.37s0-.43.31-.56a4.1,4.1,0,0,1,1.36-.18Q574.86,64.73,581.55,61.26Z" />
        </g>
    </g>
</svg>